<svg id="Layer_1" xmlns="http://www.w3.org/2000/svg" viewBox="0 0 432 80.2"><style>.st1{fill:#5a5a5a}</style><g id="Logo"><path d="M35.9 42.2c.4-.6.7-.9.7-.9-.7-.4-1.2-.7-1.8-1.1-.2.3-.4.7-.7 1.1.5.3 1.2.6 1.8.9zM64.7 30l-.7.6c-1.2.9-3.3 2.6-5.6 4.4h-.1c-4.4 3.4-9.4 7.1-9.4 7.1 1.2.7 4.6 3 6 3.9l1.1-1.1c.4-.4.8-.8 1.2-.6 1.4.6 1.5 1.4 1.5 1.4l.1.8 1.6-.5h.1c.1 0 .2 0 .3-.1h.4c.2 0 .3.1.5.2s.3.2.4.3c.1.1.2.2.2.3 0 .1.1.2 0 .3 0 .1-.1.2-.2.2L59.8 49l-.1.1v.1c0 .2.2.3-.1.4-.3.1-.6 0-.6 0s-.2.1-.5.2l-1.8 1s-.1.1-.2.1h-.3c-.1 0-.2 0-.4-.1-.1 0-.3-.1-.4-.1-.1 0-.2-.1-.3-.1-.1 0-.1-.1-.1-.1v-.1l.4-1.5-.7-.2-11.1-3.2s-8.1 3.3-8.5 3.4c-.4.1-.7.3-1.2.1-.6-.2-.9-.6-.5-1.6.4-.9.8-1.8 1.2-2.5L33 43.3c-.8 1-1.5 1.6-1.6 1.5-.2-.1.4-1.2 1.4-2.5-.2-.2-.3-.4-.2-.5.1-.1.3-.1.6 0 .5-.6 1-1.2 1.4-1.5-4.5-2.9-5.2-4.8-4.8-5.3.5-.6 2.6.1 2.6.1s.1-.2.4-.3c1.2-.1 3.4.9 5.3 1.8.3-.6.9-1.4 1.6-2.4-.2-.3-.3-.5-.2-.7.1-.1.4-.1.7.1 1.4-1.6 2.6-2.7 2.8-2.5.2.2-.4 1.2-1.3 2.5 1.2.4 3.4 1.7 4.2 2.2 4.8-2.3 11.5-5.4 12.1-5.8.5-.2 1.8-.9 3.2-1.6l2-1C59 21 51.8 16.8 43.6 16.8c-12.9 0-23.4 10.5-23.4 23.4 0 12.9 10.5 23.4 23.4 23.4C56.5 63.5 67 53 67 40c0-3.6-.8-6.9-2.3-10zm-26.2 6.6c1.3.7 2.2 1.2 2.2 1.2.1 0 .4-.2.9-.4-.7-.7-1.5-1.5-1.8-2.1-.5.5-.9 1-1.3 1.3z" fill="#e65400"/><path class="st1" d="M93.3 30.1l-.5 3.3h-6.4V38h5.1v3.3h-5.1v8.9h-4v-20h10.9zM102.6 30.1v13.2c0 1.2.1 2 .3 2.4.5.9 1.4 1.4 2.7 1.4 1.8 0 2.9-.9 3.1-2.3.1-.4.1-.7.1-1.8V30.1h4.1v13.5c0 1.9 0 2.3-.3 3.1-.5 1.6-2.5 3.8-6.8 3.8-3.1 0-5.3-.9-6.4-2.7-.7-1-.9-1.8-.9-3.8V30h4.1zM123.8 30.1v16.7h7.2l-.7 3.3h-10.6v-20h4.1zM140.3 30.1v16.7h7.2l-.7 3.3h-10.6v-20h4.1zM173.5 34.4c-1.8-1.1-3.2-1.5-4.7-1.5-1.6 0-2.8.9-2.8 2.3 0 1 .5 1.6 2.2 2l2.4.7c3.3.9 5.1 3 5.1 6 0 4.1-3.3 6.7-8.3 6.7-2.3 0-4.8-.7-6.8-1.8l1.5-3.1c1.9 1 3.5 1.6 5.5 1.6 2.3 0 3.5-.9 3.5-2.7 0-1.3-.8-2.1-2.6-2.6l-2.2-.6c-2-.5-3.2-1.3-3.9-2.5-.6-.9-.8-1.9-.8-3.1 0-3.7 2.9-6.2 7.2-6.2 2.5 0 4.9.8 6.7 2l-2 2.8zM189 30l6.3 20.1H191l-1.4-4.8h-5.9l-1.4 4.8h-4.2l6.6-20.1h4.3zm-.4 12s-.7-2.1-1.1-4c-.2-.9-.8-3.5-.8-3.5s-.6 2.4-.9 3.9c-.4 1.4-.6 2.4-1.1 3.7 0-.1 3.9-.1 3.9-.1zM203.8 30.1v20h-4.2v-20h4.2zM214.8 30.1v16.7h7.2l-.7 3.3h-10.6v-20h4.1zM239.2 30.1v13.2c0 1.2.1 2 .3 2.4.5.9 1.4 1.4 2.7 1.4 1.8 0 2.9-.9 3.1-2.3.1-.4.1-.7.1-1.8V30.1h4.1v13.5c0 1.9 0 2.3-.3 3.1-.5 1.6-2.5 3.8-6.8 3.8-3.1 0-5.3-.9-6.4-2.7-.7-1-.9-1.8-.9-3.8V30h4.1zM260.7 30.1l3.8 8c1 2.1 1.8 4.2 2.2 5.7-.1-1.6-.3-4.1-.3-5.5l-.1-8.2h3.8v20H266l-3.4-7.7c-1.1-2.5-2.3-5.3-2.7-6.6.1 1.6.2 4 .2 5.7l.1 8.6h-3.9v-20h4.4zM281.2 30.1v20H277v-20h4.2zM290.5 30.1l3.3 10.4c.3.9.6 2 .9 3.5.3-1.2.8-2.9 1.2-4l3.4-9.9h4.2l-7 20.2h-3.7L286 30.1h4.5zM319.9 30.1l-.5 3.3h-6.9V38h5.7v3.3h-5.7v5.4h7.6v3.5h-11.7v-20h11.5zM333.4 30.1c3.5 0 5.9 2.4 5.9 5.9 0 3-2 5.5-4.5 5.5.4.3.6.5.8.8 1.2 1.4 4.8 7.8 4.8 7.8h-4.8c-.8-1.3-1.1-1.9-1.9-3.3-2-3.6-2.6-4.6-3.3-4.9-.2-.1-.4-.1-.6-.2v8.4h-4v-20h7.6zm-3.5 8.6h1.4c1.7 0 2.5-.2 3-.7.5-.5.8-1.2.8-2 0-1.2-.5-2.1-1.4-2.5-.5-.2-1.3-.3-2.3-.3H330v5.5zM356.6 34.4c-1.8-1.1-3.2-1.5-4.7-1.5-1.6 0-2.8.9-2.8 2.3 0 1 .6 1.6 2.2 2l2.4.7c3.3.9 5.1 3 5.1 6 0 4.1-3.3 6.7-8.3 6.7-2.3 0-4.8-.7-6.8-1.8l1.5-3.1c1.9 1 3.5 1.6 5.5 1.6 2.3 0 3.5-.9 3.5-2.7 0-1.3-.8-2.1-2.6-2.6l-2.2-.6c-2-.5-3.2-1.3-3.9-2.5-.6-.9-.8-1.9-.8-3.1 0-3.7 2.9-6.2 7.2-6.2 2.4 0 4.9.8 6.7 2l-2 2.8zM368.2 30.1v20H364v-20h4.2zM387.5 30.1l-.7 3.3H382v16.7h-4V33.4h-4.9v-3.3h14.4zM394.9 30.1l2.6 5.5c.5 1.1.8 1.8 1 2.6.2-.6.6-1.6 1.1-2.5l2.6-5.5h4.8L400.6 42v8.2h-4.2V42l-6.2-11.8h4.7z"/></g><path fill="none" d="M0 0h432v80.2H0z" id="padding"/></svg>